<mxfile host="app.diagrams.net" modified="2021-05-15T07:07:56.151Z" agent="5.0 (X11)" etag="-Uc0t9p8UdvaWR37qLYv" version="14.6.13" type="github" pages="3">
  <diagram id="KxJXpbGQlhkf6KC97_ca" name="Page-1">
    <mxGraphModel dx="868" dy="492" grid="1" gridSize="10" guides="1" tooltips="1" connect="1" arrows="1" fold="1" page="1" pageScale="1" pageWidth="827" pageHeight="1169" math="0" shadow="0">
      <root>
        <mxCell id="0" />
        <mxCell id="1" parent="0" />
        <mxCell id="vVS8wv4UVS95B0Jl2pPs-1" value="User" style="swimlane;fontStyle=0;childLayout=stackLayout;horizontal=1;startSize=26;horizontalStack=0;resizeParent=1;resizeParentMax=0;resizeLast=0;collapsible=1;marginBottom=0;" parent="1" vertex="1">
          <mxGeometry x="880" y="70" width="130" height="290" as="geometry">
            <mxRectangle x="80" y="80" width="60" height="26" as="alternateBounds" />
          </mxGeometry>
        </mxCell>
        <mxCell id="vVS8wv4UVS95B0Jl2pPs-2" value="UserId : String    PK" style="text;strokeColor=none;fillColor=none;align=left;verticalAlign=top;spacingLeft=4;spacingRight=4;overflow=hidden;rotatable=0;points=[[0,0.5],[1,0.5]];portConstraint=eastwest;" parent="vVS8wv4UVS95B0Jl2pPs-1" vertex="1">
          <mxGeometry y="26" width="130" height="26" as="geometry" />
        </mxCell>
        <mxCell id="vVS8wv4UVS95B0Jl2pPs-3" value="Name: String" style="text;strokeColor=none;fillColor=none;align=left;verticalAlign=top;spacingLeft=4;spacingRight=4;overflow=hidden;rotatable=0;points=[[0,0.5],[1,0.5]];portConstraint=eastwest;" parent="vVS8wv4UVS95B0Jl2pPs-1" vertex="1">
          <mxGeometry y="52" width="130" height="28" as="geometry" />
        </mxCell>
        <mxCell id="vVS8wv4UVS95B0Jl2pPs-4" value="LastName: String" style="text;strokeColor=none;fillColor=none;align=left;verticalAlign=top;spacingLeft=4;spacingRight=4;overflow=hidden;rotatable=0;points=[[0,0.5],[1,0.5]];portConstraint=eastwest;" parent="vVS8wv4UVS95B0Jl2pPs-1" vertex="1">
          <mxGeometry y="80" width="130" height="30" as="geometry" />
        </mxCell>
        <mxCell id="vVS8wv4UVS95B0Jl2pPs-5" value="Email: String" style="text;strokeColor=none;fillColor=none;align=left;verticalAlign=top;spacingLeft=4;spacingRight=4;overflow=hidden;rotatable=0;points=[[0,0.5],[1,0.5]];portConstraint=eastwest;" parent="vVS8wv4UVS95B0Jl2pPs-1" vertex="1">
          <mxGeometry y="110" width="130" height="30" as="geometry" />
        </mxCell>
        <mxCell id="vVS8wv4UVS95B0Jl2pPs-6" value="Phone: String" style="text;strokeColor=none;fillColor=none;align=left;verticalAlign=top;spacingLeft=4;spacingRight=4;overflow=hidden;rotatable=0;points=[[0,0.5],[1,0.5]];portConstraint=eastwest;" parent="vVS8wv4UVS95B0Jl2pPs-1" vertex="1">
          <mxGeometry y="140" width="130" height="30" as="geometry" />
        </mxCell>
        <mxCell id="vVS8wv4UVS95B0Jl2pPs-7" value="Address: String" style="text;strokeColor=none;fillColor=none;align=left;verticalAlign=top;spacingLeft=4;spacingRight=4;overflow=hidden;rotatable=0;points=[[0,0.5],[1,0.5]];portConstraint=eastwest;" parent="vVS8wv4UVS95B0Jl2pPs-1" vertex="1">
          <mxGeometry y="170" width="130" height="30" as="geometry" />
        </mxCell>
        <mxCell id="vVS8wv4UVS95B0Jl2pPs-8" value="CreationDate: Date" style="text;strokeColor=none;fillColor=none;align=left;verticalAlign=top;spacingLeft=4;spacingRight=4;overflow=hidden;rotatable=0;points=[[0,0.5],[1,0.5]];portConstraint=eastwest;" parent="vVS8wv4UVS95B0Jl2pPs-1" vertex="1">
          <mxGeometry y="200" width="130" height="30" as="geometry" />
        </mxCell>
        <mxCell id="vVS8wv4UVS95B0Jl2pPs-9" value="Status: Char" style="text;strokeColor=none;fillColor=none;align=left;verticalAlign=top;spacingLeft=4;spacingRight=4;overflow=hidden;rotatable=0;points=[[0,0.5],[1,0.5]];portConstraint=eastwest;" parent="vVS8wv4UVS95B0Jl2pPs-1" vertex="1">
          <mxGeometry y="230" width="130" height="30" as="geometry" />
        </mxCell>
        <mxCell id="vVS8wv4UVS95B0Jl2pPs-10" value="Type: char" style="text;strokeColor=none;fillColor=none;align=left;verticalAlign=top;spacingLeft=4;spacingRight=4;overflow=hidden;rotatable=0;points=[[0,0.5],[1,0.5]];portConstraint=eastwest;" parent="vVS8wv4UVS95B0Jl2pPs-1" vertex="1">
          <mxGeometry y="260" width="130" height="30" as="geometry" />
        </mxCell>
        <mxCell id="vVS8wv4UVS95B0Jl2pPs-11" value="Publication" style="swimlane;fontStyle=0;childLayout=stackLayout;horizontal=1;startSize=26;fillColor=none;horizontalStack=0;resizeParent=1;resizeParentMax=0;resizeLast=0;collapsible=1;marginBottom=0;" parent="1" vertex="1">
          <mxGeometry x="40" y="80" width="170" height="236" as="geometry" />
        </mxCell>
        <mxCell id="vVS8wv4UVS95B0Jl2pPs-12" value="UserId: String FK" style="text;strokeColor=none;fillColor=none;align=left;verticalAlign=top;spacingLeft=4;spacingRight=4;overflow=hidden;rotatable=0;points=[[0,0.5],[1,0.5]];portConstraint=eastwest;" parent="vVS8wv4UVS95B0Jl2pPs-11" vertex="1">
          <mxGeometry y="26" width="170" height="26" as="geometry" />
        </mxCell>
        <mxCell id="vVS8wv4UVS95B0Jl2pPs-13" value="IdPublication : string" style="text;strokeColor=none;fillColor=none;align=left;verticalAlign=top;spacingLeft=4;spacingRight=4;overflow=hidden;rotatable=0;points=[[0,0.5],[1,0.5]];portConstraint=eastwest;" parent="vVS8wv4UVS95B0Jl2pPs-11" vertex="1">
          <mxGeometry y="52" width="170" height="26" as="geometry" />
        </mxCell>
        <mxCell id="vVS8wv4UVS95B0Jl2pPs-14" value="title: String" style="text;strokeColor=none;fillColor=none;align=left;verticalAlign=top;spacingLeft=4;spacingRight=4;overflow=hidden;rotatable=0;points=[[0,0.5],[1,0.5]];portConstraint=eastwest;" parent="vVS8wv4UVS95B0Jl2pPs-11" vertex="1">
          <mxGeometry y="78" width="170" height="26" as="geometry" />
        </mxCell>
        <mxCell id="vVS8wv4UVS95B0Jl2pPs-15" value="PostDate: Date" style="text;strokeColor=none;fillColor=none;align=left;verticalAlign=top;spacingLeft=4;spacingRight=4;overflow=hidden;rotatable=0;points=[[0,0.5],[1,0.5]];portConstraint=eastwest;" parent="vVS8wv4UVS95B0Jl2pPs-11" vertex="1">
          <mxGeometry y="104" width="170" height="28" as="geometry" />
        </mxCell>
        <mxCell id="vVS8wv4UVS95B0Jl2pPs-16" value="content: String" style="text;strokeColor=none;fillColor=none;align=left;verticalAlign=top;spacingLeft=4;spacingRight=4;overflow=hidden;rotatable=0;points=[[0,0.5],[1,0.5]];portConstraint=eastwest;" parent="vVS8wv4UVS95B0Jl2pPs-11" vertex="1">
          <mxGeometry y="132" width="170" height="26" as="geometry" />
        </mxCell>
        <mxCell id="vVS8wv4UVS95B0Jl2pPs-17" value="Modifications: List&lt;String&gt;" style="text;strokeColor=none;fillColor=none;align=left;verticalAlign=top;spacingLeft=4;spacingRight=4;overflow=hidden;rotatable=0;points=[[0,0.5],[1,0.5]];portConstraint=eastwest;" parent="vVS8wv4UVS95B0Jl2pPs-11" vertex="1">
          <mxGeometry y="158" width="170" height="26" as="geometry" />
        </mxCell>
        <mxCell id="vVS8wv4UVS95B0Jl2pPs-18" value="status: Char" style="text;strokeColor=none;fillColor=none;align=left;verticalAlign=top;spacingLeft=4;spacingRight=4;overflow=hidden;rotatable=0;points=[[0,0.5],[1,0.5]];portConstraint=eastwest;" parent="vVS8wv4UVS95B0Jl2pPs-11" vertex="1">
          <mxGeometry y="184" width="170" height="26" as="geometry" />
        </mxCell>
        <mxCell id="vVS8wv4UVS95B0Jl2pPs-19" value="image: string" style="text;strokeColor=none;fillColor=none;align=left;verticalAlign=top;spacingLeft=4;spacingRight=4;overflow=hidden;rotatable=0;points=[[0,0.5],[1,0.5]];portConstraint=eastwest;" parent="vVS8wv4UVS95B0Jl2pPs-11" vertex="1">
          <mxGeometry y="210" width="170" height="26" as="geometry" />
        </mxCell>
        <mxCell id="vVS8wv4UVS95B0Jl2pPs-20" value="ReforesTopi" style="swimlane;fontStyle=0;childLayout=stackLayout;horizontal=1;startSize=26;fillColor=none;horizontalStack=0;resizeParent=1;resizeParentMax=0;resizeLast=0;collapsible=1;marginBottom=0;" parent="1" vertex="1">
          <mxGeometry x="720" y="70" width="140" height="182" as="geometry" />
        </mxCell>
        <mxCell id="vVS8wv4UVS95B0Jl2pPs-21" value="UserId: String FK" style="text;strokeColor=none;fillColor=none;align=left;verticalAlign=top;spacingLeft=4;spacingRight=4;overflow=hidden;rotatable=0;points=[[0,0.5],[1,0.5]];portConstraint=eastwest;" parent="vVS8wv4UVS95B0Jl2pPs-20" vertex="1">
          <mxGeometry y="26" width="140" height="26" as="geometry" />
        </mxCell>
        <mxCell id="vVS8wv4UVS95B0Jl2pPs-22" value="latitude: Long" style="text;strokeColor=none;fillColor=none;align=left;verticalAlign=top;spacingLeft=4;spacingRight=4;overflow=hidden;rotatable=0;points=[[0,0.5],[1,0.5]];portConstraint=eastwest;" parent="vVS8wv4UVS95B0Jl2pPs-20" vertex="1">
          <mxGeometry y="52" width="140" height="26" as="geometry" />
        </mxCell>
        <mxCell id="vVS8wv4UVS95B0Jl2pPs-23" value="Longitude: Long" style="text;strokeColor=none;fillColor=none;align=left;verticalAlign=top;spacingLeft=4;spacingRight=4;overflow=hidden;rotatable=0;points=[[0,0.5],[1,0.5]];portConstraint=eastwest;" parent="vVS8wv4UVS95B0Jl2pPs-20" vertex="1">
          <mxGeometry y="78" width="140" height="26" as="geometry" />
        </mxCell>
        <mxCell id="vVS8wv4UVS95B0Jl2pPs-24" value="TreeType: String" style="text;strokeColor=none;fillColor=none;align=left;verticalAlign=top;spacingLeft=4;spacingRight=4;overflow=hidden;rotatable=0;points=[[0,0.5],[1,0.5]];portConstraint=eastwest;" parent="vVS8wv4UVS95B0Jl2pPs-20" vertex="1">
          <mxGeometry y="104" width="140" height="26" as="geometry" />
        </mxCell>
        <mxCell id="vVS8wv4UVS95B0Jl2pPs-25" value="BornDate: Date" style="text;strokeColor=none;fillColor=none;align=left;verticalAlign=top;spacingLeft=4;spacingRight=4;overflow=hidden;rotatable=0;points=[[0,0.5],[1,0.5]];portConstraint=eastwest;" parent="vVS8wv4UVS95B0Jl2pPs-20" vertex="1">
          <mxGeometry y="130" width="140" height="26" as="geometry" />
        </mxCell>
        <mxCell id="vVS8wv4UVS95B0Jl2pPs-26" value="Status: char" style="text;strokeColor=none;fillColor=none;align=left;verticalAlign=top;spacingLeft=4;spacingRight=4;overflow=hidden;rotatable=0;points=[[0,0.5],[1,0.5]];portConstraint=eastwest;" parent="vVS8wv4UVS95B0Jl2pPs-20" vertex="1">
          <mxGeometry y="156" width="140" height="26" as="geometry" />
        </mxCell>
        <mxCell id="vVS8wv4UVS95B0Jl2pPs-27" value="ImageDTO" style="swimlane;fontStyle=1;align=center;verticalAlign=top;childLayout=stackLayout;horizontal=1;startSize=26;horizontalStack=0;resizeParent=1;resizeParentMax=0;resizeLast=0;collapsible=1;marginBottom=0;" parent="1" vertex="1">
          <mxGeometry x="250" y="80" width="160" height="138" as="geometry" />
        </mxCell>
        <mxCell id="vVS8wv4UVS95B0Jl2pPs-28" value="Key: String" style="text;strokeColor=none;fillColor=none;align=left;verticalAlign=top;spacingLeft=4;spacingRight=4;overflow=hidden;rotatable=0;points=[[0,0.5],[1,0.5]];portConstraint=eastwest;" parent="vVS8wv4UVS95B0Jl2pPs-27" vertex="1">
          <mxGeometry y="26" width="160" height="26" as="geometry" />
        </mxCell>
        <mxCell id="vVS8wv4UVS95B0Jl2pPs-29" value="" style="line;strokeWidth=1;fillColor=none;align=left;verticalAlign=middle;spacingTop=-1;spacingLeft=3;spacingRight=3;rotatable=0;labelPosition=right;points=[];portConstraint=eastwest;" parent="vVS8wv4UVS95B0Jl2pPs-27" vertex="1">
          <mxGeometry y="52" width="160" height="8" as="geometry" />
        </mxCell>
        <mxCell id="vVS8wv4UVS95B0Jl2pPs-30" value="name: String" style="text;strokeColor=none;fillColor=none;align=left;verticalAlign=top;spacingLeft=4;spacingRight=4;overflow=hidden;rotatable=0;points=[[0,0.5],[1,0.5]];portConstraint=eastwest;" parent="vVS8wv4UVS95B0Jl2pPs-27" vertex="1">
          <mxGeometry y="60" width="160" height="26" as="geometry" />
        </mxCell>
        <mxCell id="vVS8wv4UVS95B0Jl2pPs-31" value="url: String" style="text;strokeColor=none;fillColor=none;align=left;verticalAlign=top;spacingLeft=4;spacingRight=4;overflow=hidden;rotatable=0;points=[[0,0.5],[1,0.5]];portConstraint=eastwest;" parent="vVS8wv4UVS95B0Jl2pPs-27" vertex="1">
          <mxGeometry y="86" width="160" height="26" as="geometry" />
        </mxCell>
        <mxCell id="vVS8wv4UVS95B0Jl2pPs-32" value="file: File" style="text;strokeColor=none;fillColor=none;align=left;verticalAlign=top;spacingLeft=4;spacingRight=4;overflow=hidden;rotatable=0;points=[[0,0.5],[1,0.5]];portConstraint=eastwest;" parent="vVS8wv4UVS95B0Jl2pPs-27" vertex="1">
          <mxGeometry y="112" width="160" height="26" as="geometry" />
        </mxCell>
      </root>
    </mxGraphModel>
  </diagram>
  <diagram id="NJSV-5ByKJBxDms3IFjw" name="Page-2">
    <mxGraphModel dx="2067" dy="703" grid="1" gridSize="10" guides="1" tooltips="1" connect="1" arrows="1" fold="1" page="1" pageScale="1" pageWidth="827" pageHeight="1169" math="0" shadow="0">
      <root>
        <mxCell id="A6QT6F6FcmkDmFYgpZCp-0" />
        <mxCell id="A6QT6F6FcmkDmFYgpZCp-1" parent="A6QT6F6FcmkDmFYgpZCp-0" />
        <mxCell id="A6QT6F6FcmkDmFYgpZCp-2" value="" style="ellipse;html=1;shape=startState;fillColor=#000000;strokeColor=#ff0000;" parent="A6QT6F6FcmkDmFYgpZCp-1" vertex="1">
          <mxGeometry x="-500" y="90" width="30" height="30" as="geometry" />
        </mxCell>
        <mxCell id="A6QT6F6FcmkDmFYgpZCp-3" value="" style="edgeStyle=orthogonalEdgeStyle;html=1;verticalAlign=bottom;endArrow=open;endSize=8;strokeColor=#ff0000;" parent="A6QT6F6FcmkDmFYgpZCp-1" source="A6QT6F6FcmkDmFYgpZCp-2" edge="1">
          <mxGeometry relative="1" as="geometry">
            <mxPoint x="-485" y="180" as="targetPoint" />
          </mxGeometry>
        </mxCell>
        <mxCell id="A6QT6F6FcmkDmFYgpZCp-4" value="Frontend" style="html=1;" parent="A6QT6F6FcmkDmFYgpZCp-1" vertex="1">
          <mxGeometry x="-540" y="180" width="110" height="50" as="geometry" />
        </mxCell>
        <mxCell id="A6QT6F6FcmkDmFYgpZCp-5" value="Spring" style="html=1;" parent="A6QT6F6FcmkDmFYgpZCp-1" vertex="1">
          <mxGeometry y="180" width="110" height="50" as="geometry" />
        </mxCell>
        <mxCell id="A6QT6F6FcmkDmFYgpZCp-6" value="DB" style="html=1;" parent="A6QT6F6FcmkDmFYgpZCp-1" vertex="1">
          <mxGeometry x="320" y="180" width="110" height="50" as="geometry" />
        </mxCell>
        <mxCell id="A6QT6F6FcmkDmFYgpZCp-7" value="Inicio" style="rounded=0;whiteSpace=wrap;html=1;" parent="A6QT6F6FcmkDmFYgpZCp-1" vertex="1">
          <mxGeometry x="-360" y="290" width="90" height="60" as="geometry" />
        </mxCell>
        <mxCell id="A6QT6F6FcmkDmFYgpZCp-8" value="Quienes Somos" style="rounded=0;whiteSpace=wrap;html=1;" parent="A6QT6F6FcmkDmFYgpZCp-1" vertex="1">
          <mxGeometry x="-360" y="390" width="90" height="60" as="geometry" />
        </mxCell>
        <mxCell id="A6QT6F6FcmkDmFYgpZCp-9" value="Preguntas" style="rounded=0;whiteSpace=wrap;html=1;" parent="A6QT6F6FcmkDmFYgpZCp-1" vertex="1">
          <mxGeometry x="-362.5" y="840" width="95" height="60" as="geometry" />
        </mxCell>
        <mxCell id="A6QT6F6FcmkDmFYgpZCp-10" value="Proyectos y Publicaciones" style="rounded=0;whiteSpace=wrap;html=1;" parent="A6QT6F6FcmkDmFYgpZCp-1" vertex="1">
          <mxGeometry x="-365" y="610" width="95" height="60" as="geometry" />
        </mxCell>
        <mxCell id="A6QT6F6FcmkDmFYgpZCp-11" value="Cronica" style="rounded=0;whiteSpace=wrap;html=1;" parent="A6QT6F6FcmkDmFYgpZCp-1" vertex="1">
          <mxGeometry x="-360" y="490" width="90" height="60" as="geometry" />
        </mxCell>
        <mxCell id="A6QT6F6FcmkDmFYgpZCp-12" value="" style="endArrow=none;dashed=1;html=1;dashPattern=1 3;strokeWidth=2;entryX=1;entryY=1;entryDx=0;entryDy=0;" parent="A6QT6F6FcmkDmFYgpZCp-1" target="A6QT6F6FcmkDmFYgpZCp-4" edge="1">
          <mxGeometry width="50" height="50" relative="1" as="geometry">
            <mxPoint x="-430" y="930" as="sourcePoint" />
            <mxPoint x="50" y="410" as="targetPoint" />
          </mxGeometry>
        </mxCell>
        <mxCell id="A6QT6F6FcmkDmFYgpZCp-13" value="Publications managment" style="rounded=1;whiteSpace=wrap;html=1;" parent="A6QT6F6FcmkDmFYgpZCp-1" vertex="1">
          <mxGeometry y="300" width="100" height="60" as="geometry" />
        </mxCell>
        <mxCell id="A6QT6F6FcmkDmFYgpZCp-14" value="Image Supplier" style="rounded=1;whiteSpace=wrap;html=1;" parent="A6QT6F6FcmkDmFYgpZCp-1" vertex="1">
          <mxGeometry y="420" width="100" height="60" as="geometry" />
        </mxCell>
        <mxCell id="A6QT6F6FcmkDmFYgpZCp-15" style="edgeStyle=orthogonalEdgeStyle;rounded=0;orthogonalLoop=1;jettySize=auto;html=1;exitX=1;exitY=0.5;exitDx=0;exitDy=0;entryX=0;entryY=0.5;entryDx=0;entryDy=0;" parent="A6QT6F6FcmkDmFYgpZCp-1" source="A6QT6F6FcmkDmFYgpZCp-16" target="A6QT6F6FcmkDmFYgpZCp-13" edge="1">
          <mxGeometry relative="1" as="geometry" />
        </mxCell>
        <mxCell id="A6QT6F6FcmkDmFYgpZCp-16" value="Blog" style="rounded=0;whiteSpace=wrap;html=1;" parent="A6QT6F6FcmkDmFYgpZCp-1" vertex="1">
          <mxGeometry x="-320" y="680" width="95" height="60" as="geometry" />
        </mxCell>
        <mxCell id="A6QT6F6FcmkDmFYgpZCp-17" value="Maps" style="rounded=0;whiteSpace=wrap;html=1;" parent="A6QT6F6FcmkDmFYgpZCp-1" vertex="1">
          <mxGeometry x="-320" y="750" width="95" height="60" as="geometry" />
        </mxCell>
        <mxCell id="A6QT6F6FcmkDmFYgpZCp-18" value="" style="endArrow=classic;html=1;entryX=0.01;entryY=0.617;entryDx=0;entryDy=0;entryPerimeter=0;" parent="A6QT6F6FcmkDmFYgpZCp-1" target="A6QT6F6FcmkDmFYgpZCp-14" edge="1">
          <mxGeometry width="50" height="50" relative="1" as="geometry">
            <mxPoint x="-110" y="457" as="sourcePoint" />
            <mxPoint x="50" y="530" as="targetPoint" />
          </mxGeometry>
        </mxCell>
        <mxCell id="A6QT6F6FcmkDmFYgpZCp-19" value="Firestore&lt;br&gt;DB" style="shape=cylinder3;whiteSpace=wrap;html=1;boundedLbl=1;backgroundOutline=1;size=15;" parent="A6QT6F6FcmkDmFYgpZCp-1" vertex="1">
          <mxGeometry x="340" y="280" width="60" height="80" as="geometry" />
        </mxCell>
        <mxCell id="A6QT6F6FcmkDmFYgpZCp-20" value="Storage" style="shape=cylinder3;whiteSpace=wrap;html=1;boundedLbl=1;backgroundOutline=1;size=15;" parent="A6QT6F6FcmkDmFYgpZCp-1" vertex="1">
          <mxGeometry x="330" y="400" width="60" height="80" as="geometry" />
        </mxCell>
        <mxCell id="A6QT6F6FcmkDmFYgpZCp-21" value="" style="endArrow=classic;html=1;exitX=1;exitY=0.5;exitDx=0;exitDy=0;" parent="A6QT6F6FcmkDmFYgpZCp-1" source="A6QT6F6FcmkDmFYgpZCp-14" edge="1">
          <mxGeometry width="50" height="50" relative="1" as="geometry">
            <mxPoint y="570" as="sourcePoint" />
            <mxPoint x="330" y="447" as="targetPoint" />
          </mxGeometry>
        </mxCell>
        <mxCell id="A6QT6F6FcmkDmFYgpZCp-22" value="" style="endArrow=classic;html=1;entryX=0;entryY=0;entryDx=0;entryDy=52.5;entryPerimeter=0;exitX=1;exitY=0.5;exitDx=0;exitDy=0;" parent="A6QT6F6FcmkDmFYgpZCp-1" source="A6QT6F6FcmkDmFYgpZCp-13" target="A6QT6F6FcmkDmFYgpZCp-19" edge="1">
          <mxGeometry width="50" height="50" relative="1" as="geometry">
            <mxPoint y="570" as="sourcePoint" />
            <mxPoint x="50" y="520" as="targetPoint" />
          </mxGeometry>
        </mxCell>
        <mxCell id="A6QT6F6FcmkDmFYgpZCp-23" value="" style="endArrow=classic;startArrow=classic;html=1;entryX=0.5;entryY=1;entryDx=0;entryDy=0;exitX=0.5;exitY=0;exitDx=0;exitDy=0;" parent="A6QT6F6FcmkDmFYgpZCp-1" source="A6QT6F6FcmkDmFYgpZCp-14" target="A6QT6F6FcmkDmFYgpZCp-13" edge="1">
          <mxGeometry width="50" height="50" relative="1" as="geometry">
            <mxPoint y="570" as="sourcePoint" />
            <mxPoint x="50" y="520" as="targetPoint" />
          </mxGeometry>
        </mxCell>
        <mxCell id="A6QT6F6FcmkDmFYgpZCp-24" value="Nav Bar" style="rounded=1;whiteSpace=wrap;html=1;" parent="A6QT6F6FcmkDmFYgpZCp-1" vertex="1">
          <mxGeometry x="-440" y="220" width="120" height="60" as="geometry" />
        </mxCell>
      </root>
    </mxGraphModel>
  </diagram>
  <diagram id="5lyImM-GTNgWyzA1-2Sb" name="Page-3">
    <mxGraphModel dx="1447" dy="1989" grid="1" gridSize="10" guides="1" tooltips="1" connect="1" arrows="1" fold="1" page="1" pageScale="1" pageWidth="827" pageHeight="1169" math="0" shadow="0">
      <root>
        <mxCell id="FQR75ZPhlFpz2n90d9_L-0" />
        <mxCell id="FQR75ZPhlFpz2n90d9_L-1" parent="FQR75ZPhlFpz2n90d9_L-0" />
        <mxCell id="FQR75ZPhlFpz2n90d9_L-2" value="&lt;font style=&quot;font-size: 26px&quot;&gt;FRONT END&lt;/font&gt;" style="text;html=1;strokeColor=none;fillColor=none;align=center;verticalAlign=middle;whiteSpace=wrap;rounded=0;" parent="FQR75ZPhlFpz2n90d9_L-1" vertex="1">
          <mxGeometry x="30" y="20" width="500" height="80" as="geometry" />
        </mxCell>
        <mxCell id="FQR75ZPhlFpz2n90d9_L-6" value="Publication" style="swimlane;fontStyle=0;childLayout=stackLayout;horizontal=1;startSize=26;fillColor=none;horizontalStack=0;resizeParent=1;resizeParentMax=0;resizeLast=0;collapsible=1;marginBottom=0;" parent="FQR75ZPhlFpz2n90d9_L-1" vertex="1">
          <mxGeometry x="260" y="128" width="140" height="104" as="geometry" />
        </mxCell>
        <mxCell id="FQR75ZPhlFpz2n90d9_L-7" value="titulo : String" style="text;strokeColor=#2D7600;fillColor=#60a917;align=left;verticalAlign=top;spacingLeft=4;spacingRight=4;overflow=hidden;rotatable=0;points=[[0,0.5],[1,0.5]];portConstraint=eastwest;fontColor=#ffffff;" parent="FQR75ZPhlFpz2n90d9_L-6" vertex="1">
          <mxGeometry y="26" width="140" height="26" as="geometry" />
        </mxCell>
        <mxCell id="FQR75ZPhlFpz2n90d9_L-8" value="Cronica: String" style="text;strokeColor=#2D7600;fillColor=#60a917;align=left;verticalAlign=top;spacingLeft=4;spacingRight=4;overflow=hidden;rotatable=0;points=[[0,0.5],[1,0.5]];portConstraint=eastwest;fontColor=#ffffff;" parent="FQR75ZPhlFpz2n90d9_L-6" vertex="1">
          <mxGeometry y="52" width="140" height="26" as="geometry" />
        </mxCell>
        <mxCell id="FQR75ZPhlFpz2n90d9_L-9" value="Imagen: MultipartFile" style="text;strokeColor=#2D7600;fillColor=#60a917;align=left;verticalAlign=top;spacingLeft=4;spacingRight=4;overflow=hidden;rotatable=0;points=[[0,0.5],[1,0.5]];portConstraint=eastwest;fontColor=#ffffff;" parent="FQR75ZPhlFpz2n90d9_L-6" vertex="1">
          <mxGeometry y="78" width="140" height="26" as="geometry" />
        </mxCell>
        <mxCell id="FQR75ZPhlFpz2n90d9_L-10" value="" style="html=1;strokeWidth=1;fillColor=none;" parent="FQR75ZPhlFpz2n90d9_L-1" vertex="1">
          <mxGeometry x="620" y="578" width="870" height="310" as="geometry" />
        </mxCell>
        <mxCell id="FQR75ZPhlFpz2n90d9_L-11" value="Publication Managment" style="text;align=center;fontStyle=1;verticalAlign=middle;spacingLeft=3;spacingRight=3;strokeColor=none;rotatable=0;points=[[0,0.5],[1,0.5]];portConstraint=eastwest;fillColor=none;" parent="FQR75ZPhlFpz2n90d9_L-1" vertex="1">
          <mxGeometry x="620" y="552" width="150" height="26" as="geometry" />
        </mxCell>
        <mxCell id="FQR75ZPhlFpz2n90d9_L-12" value="PublicationDto" style="swimlane;fontStyle=0;childLayout=stackLayout;horizontal=1;startSize=26;fillColor=#008a00;horizontalStack=0;resizeParent=1;resizeParentMax=0;resizeLast=0;collapsible=1;marginBottom=0;strokeWidth=1;strokeColor=#005700;fontColor=#ffffff;" parent="FQR75ZPhlFpz2n90d9_L-1" vertex="1">
          <mxGeometry x="630" y="585" width="165" height="214" as="geometry" />
        </mxCell>
        <mxCell id="FQR75ZPhlFpz2n90d9_L-13" value="String idPublication;" style="text;align=left;verticalAlign=top;spacingLeft=4;spacingRight=4;overflow=hidden;rotatable=0;points=[[0,0.5],[1,0.5]];portConstraint=eastwest;" parent="FQR75ZPhlFpz2n90d9_L-12" vertex="1">
          <mxGeometry y="26" width="165" height="26" as="geometry" />
        </mxCell>
        <mxCell id="FQR75ZPhlFpz2n90d9_L-14" value="String title;" style="text;strokeColor=#2D7600;fillColor=#60a917;align=left;verticalAlign=top;spacingLeft=4;spacingRight=4;overflow=hidden;rotatable=0;points=[[0,0.5],[1,0.5]];portConstraint=eastwest;fontStyle=1;fontColor=#ffffff;" parent="FQR75ZPhlFpz2n90d9_L-12" vertex="1">
          <mxGeometry y="52" width="165" height="26" as="geometry" />
        </mxCell>
        <mxCell id="FQR75ZPhlFpz2n90d9_L-15" value="String postDate;" style="text;strokeColor=#001DBC;fillColor=#0050ef;align=left;verticalAlign=top;spacingLeft=4;spacingRight=4;overflow=hidden;rotatable=0;points=[[0,0.5],[1,0.5]];portConstraint=eastwest;fontStyle=1;fontColor=#ffffff;" parent="FQR75ZPhlFpz2n90d9_L-12" vertex="1">
          <mxGeometry y="78" width="165" height="32" as="geometry" />
        </mxCell>
        <mxCell id="FQR75ZPhlFpz2n90d9_L-16" value="String content;" style="text;strokeColor=#2D7600;fillColor=#60a917;align=left;verticalAlign=top;spacingLeft=4;spacingRight=4;overflow=hidden;rotatable=0;points=[[0,0.5],[1,0.5]];portConstraint=eastwest;fontStyle=1;fontColor=#ffffff;" parent="FQR75ZPhlFpz2n90d9_L-12" vertex="1">
          <mxGeometry y="110" width="165" height="26" as="geometry" />
        </mxCell>
        <mxCell id="FQR75ZPhlFpz2n90d9_L-17" value="List&lt;String&gt; modifications;" style="text;strokeColor=#001DBC;fillColor=#0050ef;align=left;verticalAlign=top;spacingLeft=4;spacingRight=4;overflow=hidden;rotatable=0;points=[[0,0.5],[1,0.5]];portConstraint=eastwest;fontColor=#ffffff;" parent="FQR75ZPhlFpz2n90d9_L-12" vertex="1">
          <mxGeometry y="136" width="165" height="26" as="geometry" />
        </mxCell>
        <mxCell id="FQR75ZPhlFpz2n90d9_L-18" value="String status;" style="text;strokeColor=#001DBC;fillColor=#0050ef;align=left;verticalAlign=top;spacingLeft=4;spacingRight=4;overflow=hidden;rotatable=0;points=[[0,0.5],[1,0.5]];portConstraint=eastwest;fontStyle=1;fontColor=#ffffff;" parent="FQR75ZPhlFpz2n90d9_L-12" vertex="1">
          <mxGeometry y="162" width="165" height="26" as="geometry" />
        </mxCell>
        <mxCell id="FQR75ZPhlFpz2n90d9_L-19" value="String imageURL" style="text;align=left;verticalAlign=top;spacingLeft=4;spacingRight=4;overflow=hidden;rotatable=0;points=[[0,0.5],[1,0.5]];portConstraint=eastwest;fontStyle=0;fillColor=#6a00ff;strokeColor=#3700CC;fontColor=#ffffff;" parent="FQR75ZPhlFpz2n90d9_L-12" vertex="1">
          <mxGeometry y="188" width="165" height="26" as="geometry" />
        </mxCell>
        <mxCell id="FQR75ZPhlFpz2n90d9_L-20" value="" style="html=1;strokeWidth=1;fillColor=none;" parent="FQR75ZPhlFpz2n90d9_L-1" vertex="1">
          <mxGeometry x="620" y="218" width="880" height="310" as="geometry" />
        </mxCell>
        <mxCell id="FQR75ZPhlFpz2n90d9_L-21" value="Image Supplier" style="text;align=center;fontStyle=1;verticalAlign=middle;spacingLeft=3;spacingRight=3;strokeColor=none;rotatable=0;points=[[0,0.5],[1,0.5]];portConstraint=eastwest;fillColor=none;" parent="FQR75ZPhlFpz2n90d9_L-1" vertex="1">
          <mxGeometry x="620" y="192" width="150" height="26" as="geometry" />
        </mxCell>
        <mxCell id="FQR75ZPhlFpz2n90d9_L-22" value="" style="endArrow=none;dashed=1;html=1;dashPattern=1 3;strokeWidth=2;" parent="FQR75ZPhlFpz2n90d9_L-1" edge="1">
          <mxGeometry width="50" height="50" relative="1" as="geometry">
            <mxPoint x="570" y="880" as="sourcePoint" />
            <mxPoint x="570" y="128" as="targetPoint" />
          </mxGeometry>
        </mxCell>
        <mxCell id="FQR75ZPhlFpz2n90d9_L-23" value="" style="endArrow=classic;html=1;strokeWidth=1;entryX=0.002;entryY=0.042;entryDx=0;entryDy=0;entryPerimeter=0;" parent="FQR75ZPhlFpz2n90d9_L-1" target="FQR75ZPhlFpz2n90d9_L-10" edge="1">
          <mxGeometry width="50" height="50" relative="1" as="geometry">
            <mxPoint x="570" y="591" as="sourcePoint" />
            <mxPoint x="540" y="702" as="targetPoint" />
          </mxGeometry>
        </mxCell>
        <mxCell id="FQR75ZPhlFpz2n90d9_L-24" value="&lt;font style=&quot;font-size: 26px&quot;&gt;BACK END&lt;/font&gt;" style="text;html=1;strokeColor=none;fillColor=none;align=center;verticalAlign=middle;whiteSpace=wrap;rounded=0;" parent="FQR75ZPhlFpz2n90d9_L-1" vertex="1">
          <mxGeometry x="480" y="30" width="500" height="80" as="geometry" />
        </mxCell>
        <mxCell id="FQR75ZPhlFpz2n90d9_L-25" value="&lt;font style=&quot;font-size: 26px&quot;&gt;DB&lt;/font&gt;" style="text;html=1;strokeColor=none;fillColor=none;align=center;verticalAlign=middle;whiteSpace=wrap;rounded=0;" parent="FQR75ZPhlFpz2n90d9_L-1" vertex="1">
          <mxGeometry x="1370" y="20" width="500" height="80" as="geometry" />
        </mxCell>
        <mxCell id="FQR75ZPhlFpz2n90d9_L-26" value="" style="endArrow=classic;html=1;strokeWidth=1;" parent="FQR75ZPhlFpz2n90d9_L-1" edge="1" source="4V_-_iqtQa__YNZKTN2D-1">
          <mxGeometry width="50" height="50" relative="1" as="geometry">
            <mxPoint x="570" y="247" as="sourcePoint" />
            <mxPoint x="618" y="280" as="targetPoint" />
          </mxGeometry>
        </mxCell>
        <mxCell id="FQR75ZPhlFpz2n90d9_L-27" value="" style="endArrow=classic;html=1;strokeWidth=1;exitX=1.029;exitY=1.179;exitDx=0;exitDy=0;exitPerimeter=0;" parent="FQR75ZPhlFpz2n90d9_L-1" edge="1">
          <mxGeometry width="50" height="50" relative="1" as="geometry">
            <mxPoint x="804.6399999999999" y="282.654" as="sourcePoint" />
            <mxPoint x="1920" y="280" as="targetPoint" />
          </mxGeometry>
        </mxCell>
        <mxCell id="FQR75ZPhlFpz2n90d9_L-28" value="RealTime&lt;br&gt;DB" style="shape=cylinder3;whiteSpace=wrap;html=1;boundedLbl=1;backgroundOutline=1;size=15;strokeWidth=1;fillColor=none;" parent="FQR75ZPhlFpz2n90d9_L-1" vertex="1">
          <mxGeometry x="1690" y="40" width="60" height="80" as="geometry" />
        </mxCell>
        <mxCell id="FQR75ZPhlFpz2n90d9_L-29" value="Storage" style="shape=cylinder3;whiteSpace=wrap;html=1;boundedLbl=1;backgroundOutline=1;size=15;strokeWidth=1;fillColor=none;" parent="FQR75ZPhlFpz2n90d9_L-1" vertex="1">
          <mxGeometry x="1900" y="40" width="60" height="80" as="geometry" />
        </mxCell>
        <mxCell id="FQR75ZPhlFpz2n90d9_L-30" value="" style="endArrow=none;dashed=1;html=1;strokeWidth=1;entryX=0.5;entryY=1;entryDx=0;entryDy=0;entryPerimeter=0;" parent="FQR75ZPhlFpz2n90d9_L-1" target="FQR75ZPhlFpz2n90d9_L-28" edge="1">
          <mxGeometry width="50" height="50" relative="1" as="geometry">
            <mxPoint x="1720" y="1499.0000000000005" as="sourcePoint" />
            <mxPoint x="1200" y="210" as="targetPoint" />
          </mxGeometry>
        </mxCell>
        <mxCell id="FQR75ZPhlFpz2n90d9_L-31" value="" style="endArrow=none;dashed=1;html=1;strokeWidth=1;entryX=0.5;entryY=1;entryDx=0;entryDy=0;entryPerimeter=0;" parent="FQR75ZPhlFpz2n90d9_L-1" edge="1">
          <mxGeometry width="50" height="50" relative="1" as="geometry">
            <mxPoint x="1929.4099999999999" y="1499.0000000000005" as="sourcePoint" />
            <mxPoint x="1929.4099999999999" y="120" as="targetPoint" />
          </mxGeometry>
        </mxCell>
        <mxCell id="FQR75ZPhlFpz2n90d9_L-33" value="ImageDTO" style="swimlane;fontStyle=1;align=center;verticalAlign=top;childLayout=stackLayout;horizontal=1;startSize=26;horizontalStack=0;resizeParent=1;resizeParentMax=0;resizeLast=0;collapsible=1;marginBottom=0;fillColor=#008a00;strokeColor=#005700;fontColor=#ffffff;" parent="FQR75ZPhlFpz2n90d9_L-1" vertex="1">
          <mxGeometry x="640" y="226" width="160" height="112" as="geometry" />
        </mxCell>
        <mxCell id="FQR75ZPhlFpz2n90d9_L-36" value="name: String" style="text;strokeColor=none;fillColor=none;align=left;verticalAlign=top;spacingLeft=4;spacingRight=4;overflow=hidden;rotatable=0;points=[[0,0.5],[1,0.5]];portConstraint=eastwest;" parent="FQR75ZPhlFpz2n90d9_L-33" vertex="1">
          <mxGeometry y="26" width="160" height="26" as="geometry" />
        </mxCell>
        <mxCell id="FQR75ZPhlFpz2n90d9_L-35" value="" style="line;strokeWidth=1;fillColor=none;align=left;verticalAlign=middle;spacingTop=-1;spacingLeft=3;spacingRight=3;rotatable=0;labelPosition=right;points=[];portConstraint=eastwest;" parent="FQR75ZPhlFpz2n90d9_L-33" vertex="1">
          <mxGeometry y="52" width="160" height="8" as="geometry" />
        </mxCell>
        <mxCell id="FQR75ZPhlFpz2n90d9_L-37" value="url: String" style="text;strokeColor=none;fillColor=none;align=left;verticalAlign=top;spacingLeft=4;spacingRight=4;overflow=hidden;rotatable=0;points=[[0,0.5],[1,0.5]];portConstraint=eastwest;" parent="FQR75ZPhlFpz2n90d9_L-33" vertex="1">
          <mxGeometry y="60" width="160" height="26" as="geometry" />
        </mxCell>
        <mxCell id="FQR75ZPhlFpz2n90d9_L-38" value="File image;" style="text;strokeColor=#2D7600;fillColor=#60a917;align=left;verticalAlign=top;spacingLeft=4;spacingRight=4;overflow=hidden;rotatable=0;points=[[0,0.5],[1,0.5]];portConstraint=eastwest;fontStyle=0;fontColor=#ffffff;" parent="FQR75ZPhlFpz2n90d9_L-33" vertex="1">
          <mxGeometry y="86" width="160" height="26" as="geometry" />
        </mxCell>
        <mxCell id="FQR75ZPhlFpz2n90d9_L-39" value="ImageDto" style="text;html=1;strokeColor=#3700CC;fillColor=#6a00ff;align=center;verticalAlign=middle;whiteSpace=wrap;rounded=0;fontColor=#ffffff;" parent="FQR75ZPhlFpz2n90d9_L-1" vertex="1">
          <mxGeometry x="1580" y="358" width="80" height="20" as="geometry" />
        </mxCell>
        <mxCell id="FQR75ZPhlFpz2n90d9_L-40" value="" style="endArrow=classic;html=1;strokeWidth=1;exitX=1.018;exitY=0.064;exitDx=0;exitDy=0;exitPerimeter=0;" parent="FQR75ZPhlFpz2n90d9_L-1" edge="1" source="FQR75ZPhlFpz2n90d9_L-13">
          <mxGeometry width="50" height="50" relative="1" as="geometry">
            <mxPoint x="1215" y="632.1440000000002" as="sourcePoint" />
            <mxPoint x="1720" y="610" as="targetPoint" />
          </mxGeometry>
        </mxCell>
        <mxCell id="4V_-_iqtQa__YNZKTN2D-0" value="Flujo para crear una publicacion" style="text;align=center;fontStyle=1;verticalAlign=middle;spacingLeft=3;spacingRight=3;strokeColor=none;rotatable=0;points=[[0,0.5],[1,0.5]];portConstraint=eastwest;fontSize=26;" vertex="1" parent="FQR75ZPhlFpz2n90d9_L-1">
          <mxGeometry x="30" y="-50" width="1040" height="50" as="geometry" />
        </mxCell>
        <mxCell id="4V_-_iqtQa__YNZKTN2D-1" value="" style="shape=umlLifeline;participant=umlEntity;perimeter=lifelinePerimeter;whiteSpace=wrap;html=1;container=1;collapsible=0;recursiveResize=0;verticalAlign=top;spacingTop=36;outlineConnect=0;fontSize=26;" vertex="1" parent="FQR75ZPhlFpz2n90d9_L-1">
          <mxGeometry x="550" y="40" width="40" height="300" as="geometry" />
        </mxCell>
        <mxCell id="4V_-_iqtQa__YNZKTN2D-2" value="" style="shape=umlLifeline;participant=umlActor;perimeter=lifelinePerimeter;whiteSpace=wrap;html=1;container=1;collapsible=0;recursiveResize=0;verticalAlign=top;spacingTop=36;outlineConnect=0;fontSize=26;" vertex="1" parent="FQR75ZPhlFpz2n90d9_L-1">
          <mxGeometry x="90" y="40" width="40" height="2170" as="geometry" />
        </mxCell>
        <mxCell id="4V_-_iqtQa__YNZKTN2D-3" value="createPost" style="html=1;verticalAlign=bottom;startArrow=oval;startFill=1;endArrow=block;startSize=8;fontSize=26;" edge="1" parent="4V_-_iqtQa__YNZKTN2D-2" target="4V_-_iqtQa__YNZKTN2D-1">
          <mxGeometry x="-0.0211" y="-50" width="60" relative="1" as="geometry">
            <mxPoint x="30" y="200" as="sourcePoint" />
            <mxPoint x="90" y="200" as="targetPoint" />
            <mxPoint as="offset" />
          </mxGeometry>
        </mxCell>
        <mxCell id="4V_-_iqtQa__YNZKTN2D-4" value="return" style="html=1;verticalAlign=bottom;endArrow=open;dashed=1;endSize=8;fontSize=26;" edge="1" parent="FQR75ZPhlFpz2n90d9_L-1" target="4V_-_iqtQa__YNZKTN2D-2">
          <mxGeometry x="-0.6688" y="40" relative="1" as="geometry">
            <mxPoint x="1920" y="380" as="sourcePoint" />
            <mxPoint x="570" y="380" as="targetPoint" />
            <mxPoint as="offset" />
          </mxGeometry>
        </mxCell>
        <mxCell id="4V_-_iqtQa__YNZKTN2D-5" value="return" style="html=1;verticalAlign=bottom;endArrow=open;dashed=1;endSize=8;fontSize=26;" edge="1" parent="FQR75ZPhlFpz2n90d9_L-1" target="4V_-_iqtQa__YNZKTN2D-2">
          <mxGeometry x="-0.8759" y="50" relative="1" as="geometry">
            <mxPoint x="1720" y="840" as="sourcePoint" />
            <mxPoint x="570" y="840" as="targetPoint" />
            <mxPoint as="offset" />
          </mxGeometry>
        </mxCell>
        <mxCell id="4V_-_iqtQa__YNZKTN2D-6" value="PublcationDTO" style="text;html=1;strokeColor=#A50040;fillColor=#d80073;align=center;verticalAlign=middle;whiteSpace=wrap;rounded=0;fontColor=#ffffff;" vertex="1" parent="FQR75ZPhlFpz2n90d9_L-1">
          <mxGeometry x="1580" y="820" width="80" height="20" as="geometry" />
        </mxCell>
        <mxCell id="4V_-_iqtQa__YNZKTN2D-7" value="String title;" style="text;strokeColor=#2D7600;fillColor=#60a917;align=left;verticalAlign=top;spacingLeft=4;spacingRight=4;overflow=hidden;rotatable=0;points=[[0,0.5],[1,0.5]];portConstraint=eastwest;fontStyle=1;fontColor=#ffffff;" vertex="1" parent="FQR75ZPhlFpz2n90d9_L-1">
          <mxGeometry x="1525" y="578" width="165" height="26" as="geometry" />
        </mxCell>
        <mxCell id="4V_-_iqtQa__YNZKTN2D-8" value="true/false" style="html=1;verticalAlign=bottom;endArrow=open;dashed=1;endSize=8;fontSize=26;" edge="1" parent="FQR75ZPhlFpz2n90d9_L-1">
          <mxGeometry x="-0.0435" y="40" relative="1" as="geometry">
            <mxPoint x="1720" y="640" as="sourcePoint" />
            <mxPoint x="1490" y="640" as="targetPoint" />
            <mxPoint as="offset" />
          </mxGeometry>
        </mxCell>
        <mxCell id="4V_-_iqtQa__YNZKTN2D-10" value="" style="endArrow=classic;html=1;strokeWidth=1;exitX=1.004;exitY=-0.082;exitDx=0;exitDy=0;exitPerimeter=0;" edge="1" parent="FQR75ZPhlFpz2n90d9_L-1" source="FQR75ZPhlFpz2n90d9_L-19">
          <mxGeometry width="50" height="50" relative="1" as="geometry">
            <mxPoint x="800" y="693.3340000000002" as="sourcePoint" />
            <mxPoint x="1710" y="771" as="targetPoint" />
          </mxGeometry>
        </mxCell>
        <mxCell id="4V_-_iqtQa__YNZKTN2D-11" value="PublicationDto" style="text;strokeColor=#005700;fillColor=#008a00;align=left;verticalAlign=top;spacingLeft=4;spacingRight=4;overflow=hidden;rotatable=0;points=[[0,0.5],[1,0.5]];portConstraint=eastwest;fontStyle=1;fontColor=#ffffff;" vertex="1" parent="FQR75ZPhlFpz2n90d9_L-1">
          <mxGeometry x="1510" y="740" width="165" height="26" as="geometry" />
        </mxCell>
      </root>
    </mxGraphModel>
  </diagram>
</mxfile>
